<?xml version="1.0" encoding="UTF-8" standalone="no"?>
<!-- Created with Inkscape (http://www.inkscape.org/) -->

<svg
   version="1.1"
   id="svg2"
   xml:space="preserve"
   width="5333.3335"
   height="3200"
   viewBox="0 0 5333.3335 3200"
   sodipodi:docname="vecteezy_beautiful-blue-mountain-silhouette-landscape-with-fog-and_7162558.eps"
   xmlns:inkscape="http://www.inkscape.org/namespaces/inkscape"
   xmlns:sodipodi="http://sodipodi.sourceforge.net/DTD/sodipodi-0.dtd"
   xmlns="http://www.w3.org/2000/svg"
   xmlns:svg="http://www.w3.org/2000/svg"><defs
     id="defs6"><clipPath
       clipPathUnits="userSpaceOnUse"
       id="clipPath18"><path
         d="M 0,24000 H 40000 V 8065.9 H 0 Z"
         id="path16" /></clipPath><linearGradient
       x1="0"
       y1="0"
       x2="1"
       y2="0"
       gradientUnits="userSpaceOnUse"
       gradientTransform="matrix(0,15934.1,15934.1,0,20000,8065.9)"
       spreadMethod="pad"
       id="linearGradient26"><stop
         style="stop-opacity:1;stop-color:#d2dfd9"
         offset="0"
         id="stop20" /><stop
         style="stop-opacity:1;stop-color:#d2dfd9"
         offset="0.587316"
         id="stop22" /><stop
         style="stop-opacity:1;stop-color:#abcdd7"
         offset="1"
         id="stop24" /></linearGradient><clipPath
       clipPathUnits="userSpaceOnUse"
       id="clipPath36"><path
         d="M 40000,15442.8 V 7065.4 H 0.0117188 v 10965.7 c 28.9687812,-8.6 57.7851812,-18.2 86.2030812,-29.8 113.0862,-45.7 240.5862,-76.6 344.8012,-121.6 207.605,-89.8 413.132,-192.7 610.064,-311 98.4,-59 125.01,-135.2 175.73,-228.3 67.08,-122.6 160.07,-145.7 256.39,-215.2 35.47,-25.6 38.8,-56.8 58.62,-89.9 34.23,-57.4 63.47,-85.8 120.44,-125.1 30.06,-20.7 70.95,-38.5 97.7,-63.3 49.47,-45.4 52.11,-102.2 138.03,-93.3 68.18,7 72.06,37.7 128.19,83.1 60.98,49.3 119.88,101.5 181.96,149.7 76.78,59.5 168.25,95.6 242.26,160.9 84.81,75 114.47,169.9 162.7,266.2 18.43,37 44.07,60.6 57.79,103.4 23.56,72.9 23.84,131.3 69.85,197.8 65.28,94.5 154.11,155.3 205.94,253.7 25.36,48 28.83,93 88.7,103.4 46.7,8.1 117.11,-25.5 162.7,-35.1 106.02,-22.4 266.23,-76.2 334.83,-164.3 59.87,-76.8 102.28,-140.3 185.7,-197.8 92.03,-63.4 199.99,-99.3 291.87,-162.6 52.81,-36.3 99.37,-91.7 165.2,-102.5 21.06,-3.5 43.79,5.4 64.99,3.2 49.48,-5.4 33.13,-11.8 69.99,-25 147.32,-53.1 275.1,-150 416.46,-218.3 79.55,-38.3 152.17,-75.4 229.5,-119 69.98,-39.6 117.94,-103 187.23,-140.9 71.37,-39.2 166.3,-23.2 251.26,-23.2 50.86,0 101.86,-0.6 152.86,-0.2 82.87,0.6 144.13,-20 222.02,-34.4 38.39,-7.1 88.56,1.1 127.78,1.6 75.94,0.8 112.53,-11.7 180.85,-29.6 48.51,-12.7 101.87,-27.9 151.9,-37.7 35.89,-7.2 80.65,7.4 116.55,3.6 59.31,-6.6 109.34,-32.9 169.9,-36.4 187.65,-11.2 385.42,-7.1 573.06,0.2 79.97,3 142.2,33 208.44,75.4 75.26,48.1 155.08,75.4 226.87,130.5 97.98,75.1 204,102.7 304.62,159.8 134.29,76.2 292.55,140.7 438.21,203.1 73.73,31.5 148.84,55.8 215.23,122.1 110.59,110.3 217.3,244.3 318.19,360.7 51.42,59.2 156.6,182.3 236.57,199.1 94.52,20 153.14,-39.8 218.97,-91.5 64.72,-50.7 137.07,-79.1 202.75,-126.9 57.1,-41.6 113.37,-48.6 158.41,-103.1 35.47,-42.8 43.51,-82.6 63.61,-132 37.14,-91.4 121.96,-186.3 192.5,-255 95.07,-92.6 174.5,-203.5 319.9,-212.9 92.3,-5.9 166.4,55 254.7,82.5 107.4,33.5 211.5,75.6 319,108.7 74,22.7 118.6,51.4 182,16 53.2,-29.7 90.1,-75.7 146.6,-101.5 62.5,-28.5 126,-24.2 188.2,-42.2 51.3,-14.8 97.2,-50.1 146.1,-71.8 47.9,-21.1 94.1,-27.2 137.3,-47.8 257,-123 536.2,-226.5 782.5,-371 117.1,-68.7 258.2,-115 382.5,-173.2 97.4,-45.8 255.1,-37.4 349.9,8.9 90.2,44.2 169.2,80.2 242.3,140.4 83.3,68.6 184.3,112.3 284.8,123.9 93,10.8 171.4,1.1 261.1,24.8 181.5,48 414.3,6.8 600.3,7.2 168.7,0.5 330.6,4.4 496.7,-24.7 58.2,-10.1 115.7,-34.7 172.6,-42.7 56.5,-7.8 68.4,-9.5 116,-27 57.8,-21.3 104.3,-44.3 166.4,-35.8 95.5,13 153.2,98.5 230.2,148.6 57.7,37.5 117.9,83.2 178.2,115 84.4,44.2 167.4,79.8 251.8,126.3 53.5,29.5 107.9,44.3 164.4,67.8 47.7,19.9 84.4,60.5 127.4,82 175.8,87.7 367.9,55.6 542.5,-44.3 170.2,-97.4 366.2,-52.1 548.8,-102.3 49.4,-13.6 94.6,-30.2 146.5,-33.6 41.7,-2.8 91.4,12.1 131.8,2.4 37.4,-8.9 71.5,-27 111.9,-37.8 54.6,-14.4 110.8,-39.7 162.7,-62.1 99.2,-42.6 187.2,-81.3 275.9,-139.9 69.2,-45.6 117.4,-106 182.7,-156 59.4,-45.4 137.7,-90.2 208,-99.3 42.1,-5.4 105.7,-6.1 146.7,-0.7 84.9,11.2 113.8,70.4 183.4,113.6 67.2,42 83.7,47.4 134.1,110.5 22.2,27.6 59.6,61 88.7,82.2 93.6,67.4 188.1,127.1 280.4,203.9 52.9,44.1 119.2,77 169.5,124.4 26.7,25 42.4,57.6 70.1,81.4 77.4,66.2 188.6,156.8 280.9,201.5 70.2,33.8 138.2,71.9 207.8,103.2 15.2,6.9 41.7,-8.4 58.9,3.7 15.2,10.7 23.5,47.5 38,62.1 44.7,44.4 131.8,99.4 184.6,130.4 92.3,53.8 145.6,171 274.2,132.9 36.5,-11 59.7,-44.1 97.7,-58.5 133.9,-50.5 294.8,-97.7 435.3,-125.4 44.4,-8.6 171,4.4 207.4,-19.7 8.8,-6 34.2,-58.3 36.7,-61.1 18.3,-19.8 50.1,-34 71.4,-47.3 90.5,-56.5 173.6,-107 256.1,-174.9 85.5,-70.5 192.5,-110.2 284.8,-171 135.1,-88.6 272.7,-193.8 398.5,-294.6 106.1,-84.8 125.9,-204.1 226.4,-289.3 122.9,-104.2 220.9,-171.8 384,-172.1 130.9,-0.1 221.2,29 330.2,89.6 172.4,95.5 369.2,159.5 556.7,213.9 42.9,12.6 86.5,40.4 129.6,50.3 24.4,5.8 55.9,0 77.5,9.3 28.4,12.1 45.7,43.3 76.4,57.3 47.9,22 108.5,23.4 158.1,45.9 68.7,31.2 117.6,76.3 173.8,123.3 76,63.6 151.4,134.1 230.9,192.9 68,50.4 159.6,82 219.6,144.4 46,47.8 85.5,93.6 134.9,140.4 48.9,46.6 64.1,98 131.3,116.6 60.2,16.7 129.6,5.4 190.2,37.9 56.8,30.6 114,88 139.1,147.7 -19.6,-76.4 62.8,-157.8 126.1,-196.1 48.3,-29.1 97.1,-20.2 148.1,-38.8 53.4,-19.4 113.7,-68 155.4,-107.6 38.7,-36.8 64.4,-76.8 110.6,-108.4 61.2,-41.7 130.5,-62.7 194.1,-97.6 56.4,-31 69.1,-48.6 107.1,-97 82.4,-105.2 202.5,-170.4 324.3,-218.4 57.2,-22.5 110.2,-60 162.7,-79.6 58.3,-21.8 137.5,-16.9 200.9,-40.3 49.5,-18.2 93.3,-48.7 143.1,-58.6 52.9,-10.6 125.2,1.3 179.8,1.3 88.1,0 189.8,-13.9 276.7,-1.3 49.3,7.2 103.8,25.3 153.7,38.1 179.6,45.7 363.1,128.4 537.5,192.2 306.2,111.8 623.8,237.3 886.5,435.1 240.7,181.1 462.6,393.8 718.4,552.7 197.3,122.6 349.4,315.9 548.9,435 107.6,64 163.7,150.8 255.9,229.3 79,67.1 158.5,129.8 239.7,193.6 62.7,49.2 121.8,102.9 190.3,143.5 31.7,18.8 108.9,79.3 143,80.9 47.6,2.1 78.6,-48.2 116,-82.1 61,-55.2 123.1,-86.8 193.1,-131 68.4,-43.4 106.6,-81.7 140.8,-152.5 65.7,-135.5 36.4,-274 80.8,-412.8 18,-56.7 39.9,-122.4 73.4,-166.8 48.9,-64.6 133.5,-138.2 199,-184.2 65,-45.5 162.6,-83.6 237.7,-106.5 40.9,-12.4 92.9,-0.7 128.6,-15.4 55,-22.5 89.6,-80.8 151.2,-97.8 81.8,-22.5 139,19.2 200.8,65.8 90.8,68.4 188.3,115.1 282.4,175.4 90.4,58.1 162.2,139.9 256.3,183.1 129.2,-129.2 290.8,-236.7 433.9,-350.3 81.8,-64.9 264.8,-136.6 293.2,-235.8 28.5,-99.5 35.4,-204.8 93.7,-295.5 50.8,-79.3 145.6,-143.1 219.8,-204.7 153,-127.1 311.2,-221 486.5,-313.5 190.4,-100.3 440.3,-54 570.6,-235.7 33.5,-46.7 75.8,-79.9 100.9,-133.1 20.1,-42.6 26.7,-87.4 45.7,-130.6 21.5,-48.7 61.4,-135.2 100.2,-169.1 44.5,-38.9 77.4,-40.2 146.4,-51.8 237.2,-39.7 475.5,-48 710.1,-109.1 59.2,-11.4 115.3,-30.7 168.5,-58.2 12.2,-9.1 22.3,-20 30.4,-32.9 50.8,-19 111.4,-19 166.1,-37.1 122.3,-40.3 252.8,-73.2 370.1,-127 54.4,-25.2 51.8,-39 115.3,-42.5 168.3,-9.6 342.3,80 498.7,127.8 129.8,39.5 240.6,61.9 372.3,71.1 60.4,4.3 136.5,49.8 196.4,37.2 46.4,-9.9 61.4,-47.8 94.4,-77.1 32.9,-29.5 73.2,-55.1 108.3,-82.1 103.4,-79.5 278.6,-77.1 409.3,-105.2 207.9,-44.8 412.8,-123.2 617.2,-166.9 16.4,1.7 32.8,2.7 49.1,2.8 z"
         id="path34" /></clipPath><linearGradient
       x1="0"
       y1="0"
       x2="1"
       y2="0"
       gradientUnits="userSpaceOnUse"
       gradientTransform="matrix(175.007,4025.17,4025.17,-175.007,20048,13651.8)"
       spreadMethod="pad"
       id="linearGradient46"><stop
         style="stop-opacity:1;stop-color:#ceded8"
         offset="0"
         id="stop38" /><stop
         style="stop-opacity:1;stop-color:#ceded8"
         offset="0.308491"
         id="stop40" /><stop
         style="stop-opacity:1;stop-color:#b8d6d8"
         offset="0.994413"
         id="stop42" /><stop
         style="stop-opacity:1;stop-color:#b8d6d8"
         offset="1"
         id="stop44" /></linearGradient><clipPath
       clipPathUnits="userSpaceOnUse"
       id="clipPath56"><path
         d="M 40000,13017.9 V 7034.1 H 0.0117188 v 5936.2 c 84.2616812,7 172.2612812,-12.2 254.7222812,5 69.567,14.5 151.754,56.1 226.18,75.6 87.582,23.1 177.25,10.2 276.473,17.8 77.199,6 160.074,33.2 221.328,69.1 71.235,41.7 103.665,103.9 166.585,151.9 55.99,42.8 124.73,73.3 174.07,121.6 40.46,39.4 57.23,67.5 112.39,91.8 100.61,44.1 190.14,93.9 300.32,124.1 129.58,35.5 251.54,82.4 383.61,112.6 101.72,23.3 174.07,41 218.96,112.7 28.7,45.9 42.56,100.7 79.84,144.1 31.18,36.5 76.35,63.8 108.51,100.3 27.85,31.8 46.84,69 86.48,93.7 50.44,31.5 113.64,48.6 165.33,74.6 70.54,35.3 109.77,81.8 187.23,113.1 77.34,31.4 131.38,56.4 215.37,74 71.79,15 141.5,43 213.01,60.7 107.96,26.7 215.78,43.1 325.26,65.1 178.78,36.1 362.13,68.4 533.15,121 64.16,19.6 131.66,17.4 193.46,37.7 86.77,28.6 139.56,67.7 237.55,81.1 39.35,5.4 83.01,-2 120.43,4.1 39.22,6.4 66.66,21.7 108.24,27.3 79.96,10.9 171.01,-3.2 252.78,-2.1 103.25,1.1 177.39,25.5 273.29,45.3 205.81,42.9 394.15,88.1 584.15,167.2 116.13,48.4 233.52,116 326.24,189.1 79.41,62.6 154.39,91.7 258.6,124.3 78.44,24.4 144.55,56.9 228.81,71.1 107.55,18 221.74,24.2 325.95,53.1 94.11,26.2 185.85,69.7 276.35,102.3 140.53,50.7 251.96,130.6 383.89,189.5 84.12,37.4 163.81,68.6 243.64,111.6 86.89,46.9 183.21,108.6 275.79,145.9 87.3,35.2 193.74,56.2 284.51,86 66.39,21.6 124.32,51.4 192.09,68.5 164.09,41.6 338.71,43.4 504.04,79.1 214.26,46.2 394.01,161.2 537.3,289.5 164.66,147.4 343.96,301.7 568.46,385.2 103.8,38.5 132.1,2.6 222.2,-46.4 127.8,-69.6 256.4,-137.9 377.4,-214 145.9,-91.7 273,-185 428.9,-262.5 62.8,-31.3 136.4,-50.6 199.1,-81.3 41.3,-20.3 40.9,-35.3 71.1,-51.9 22.9,-12.6 47.4,-15 69.1,-26.3 51.5,-26.8 99.2,-69.7 147.7,-102.1 100.2,-66.6 201.4,-131.4 304.2,-195.3 80.5,-50 144,-102.6 187.8,-174.2 74.8,10.3 137.2,47.6 210.2,63.4 70,15.1 139.2,10.8 211.2,10.4 102.6,-0.4 206.1,3.5 308.7,0.4 173.3,-5.1 321.6,-140.8 487.6,-189 91.5,-26.5 156.6,-1.9 246.3,11.3 103,15.2 251.3,14.9 356.5,2.7 77.8,-8.9 152.1,-56.4 224.6,-86.9 149.3,-63 314.7,-134 445,-216.6 146.1,-92.6 330,-178.3 436,-298.1 51.3,-57.9 148.7,-112.9 226.9,-151.5 47.1,-23.2 100,-28 148.4,-48.2 51,-21.2 92,-49.6 145.1,-69.5 64.5,-24.2 151.9,-57.8 190,-106.1 15.8,-20.1 25,-63.2 37.2,-86.2 39.3,-73.9 62.9,-142.9 115.4,-213.4 25.4,-34 47.8,-68.5 72.3,-102.7 7.4,-10.5 37.2,-55.4 43.3,-59.5 25.3,-17.1 52.9,-24.5 94.5,-10.6 18.3,6.1 36.2,24.7 52.2,33.6 35.5,19.6 76.3,27.2 112.7,43.8 76,34.8 98.4,78.2 193.8,70.1 81.5,-6.8 120.1,-59.5 178.5,-101.3 44,-31.6 83.4,-71.6 130.1,-100.3 35.5,-21.8 36.2,-21.7 80.8,-25.5 21.9,-1.9 46,5.9 67.6,1.9 16.8,-3 26.8,-18.7 38.3,-20.8 83.5,-15.7 175.7,-47.5 260,-56.9 53.5,-6 88.7,0.7 139.9,-10.9 43.1,-9.8 72.9,-25.2 111.5,-38 163.5,-54.3 292,-151 473.5,-188 97.3,-19.8 151.8,-8.7 247.5,12.6 100.2,22.2 205.4,26.7 305.6,49.6 85.1,19.5 237.8,32.1 305.9,75.1 150.5,95.2 252.8,242.3 393.8,341.9 64.8,45.7 125.7,98.8 212,123.3 76.2,21.7 162.5,23.6 243.6,42.7 103.7,24.4 182.5,71.6 261.2,131.4 110.2,83.6 231.6,163.4 359.5,233.7 128.4,70.5 269.4,114.4 419.5,155.1 164.3,44.6 343.2,56.2 505.6,101.5 98.4,27.4 207.2,88.6 293.7,133.7 32.4,17 76.9,24.3 105.4,44.7 35.4,25.3 71.5,65 105.1,93.9 42.8,36.9 72.2,80.6 116.4,116.8 54.4,44.5 103,75.3 138,129.9 35.9,55.9 77.4,102.5 119.6,155.4 20,24.9 72.5,114.7 99.3,124.8 42.6,16.2 198.1,-58.6 235.8,-81 23.6,-13.9 38.8,-37.3 62.7,-50.8 23.8,-13.2 52.8,-19.6 71.2,-32.8 11.2,-8 30.9,-47.2 42,-59.1 33.8,-36.7 77.6,-72.2 121.8,-101.5 214.4,-141.9 477.4,-181.6 750.1,-213.2 69.9,-8.1 156.7,-0.5 222,-17.1 43.8,-11.2 90.9,-32.8 138,-44.6 114.1,-28.1 256.8,-42.3 357.4,-94.6 25.8,-13.4 39.9,-29.9 60.9,-45.8 51.5,-38.9 105.2,-59.4 165.6,-91.2 146.7,-77.1 296.4,-148.5 448,-220.6 110.3,-52.4 193.9,-109.7 267.4,-192.7 64.1,-72.3 104.7,-150.9 162.8,-222.4 43.8,-53.8 83.3,-103.6 147.3,-145.7 91.1,-59.9 186.1,-41.4 302,-21.8 127.5,21.7 245,86.7 365.6,126.9 31.6,10.6 51.3,18.6 80,30.7 35.2,14.9 48.9,32.9 98.4,26.2 65,-8.7 98.1,-56.3 143.9,-88.5 80.4,-56.4 179.5,-101.4 261.1,-163.1 83.1,-62.8 187.1,-125.1 295.4,-157.7 79.4,-23.9 152,-42.6 224.3,-73.9 226.4,-98.4 465.7,-198 700,-269.3 233.4,-70.8 480.5,-82.1 732.6,-75.7 100.8,2.6 190.7,26.2 292.4,25.6 216.7,-1.2 439.8,14 654.9,-2.1 62.6,-4.7 161.1,-7.3 220.9,-28.6 36.2,-12.8 76.1,-41.7 117.4,-56 100.7,-34.9 204.1,-59.4 308.1,-87.4 144.5,-38.8 272.6,-99.8 411.3,-147.6 142.4,-49.2 299.5,-58.9 452.5,-73.4 221.3,-21 457.6,-6.2 679.9,-5.7 156.7,0.5 328.7,16.6 481.2,-18.1 40.6,-9.2 96.7,-37.3 137.6,-30.8 23.9,3.8 92.5,41.1 112.6,47.8 109.7,36.8 242.7,114.6 350.1,126 48.4,5.3 118.1,-17.2 165.5,-24.1 108.8,-16 215.8,-24.7 325.8,-32.4 192.6,-13.5 385.1,-27.9 577.6,-42.3 143.8,-10.7 272.4,-47.7 412.2,-71.2 78.6,-13.1 108.1,-22.9 169.1,-53.9 203.6,-103.1 441.1,-132.6 669.9,-182.4 55.2,-11.9 94.1,-48.8 150.8,-44.2 77.2,6.3 180,69 256.7,89 148.1,38.8 305,48.6 455.1,83.1 94.8,21.9 186.2,48.8 281,73.6 184.2,48.3 387.4,34.6 577,61.3 113.9,16 169.6,80.5 274.2,98.6 135.7,23.6 247.6,51.5 388.6,47.1 132.9,-4.2 261.4,-26.2 391.4,-45.7 399.8,-59.9 830.6,-91 1180.2,-257.3 150.9,-71.8 357.2,-77.1 548,-76.3 z"
         id="path54" /></clipPath><linearGradient
       x1="0"
       y1="0"
       x2="1"
       y2="0"
       gradientUnits="userSpaceOnUse"
       gradientTransform="matrix(0,8496.08,8496.08,0,20000,7439.2)"
       spreadMethod="pad"
       id="linearGradient66"><stop
         style="stop-opacity:1;stop-color:#ceded8"
         offset="0"
         id="stop58" /><stop
         style="stop-opacity:1;stop-color:#ceded8"
         offset="0.448155"
         id="stop60" /><stop
         style="stop-opacity:1;stop-color:#a8c8ce"
         offset="0.994413"
         id="stop62" /><stop
         style="stop-opacity:1;stop-color:#a8c8ce"
         offset="1"
         id="stop64" /></linearGradient><clipPath
       clipPathUnits="userSpaceOnUse"
       id="clipPath76"><path
         d="m 0,12425.4 v -6479 h 40000 v 5711 c -36.3,-4.5 -69.7,-9.3 -97,-13 -123.6,-17.3 -241.9,-38.5 -365.9,-56.6 -154.8,-22.5 -307,-17.1 -465.1,-17.2 -255.1,-0.1 -512.2,13.3 -763.9,-21.6 -173.4,-24.1 -331.2,-49.3 -509.2,-47.8 -76.6,0.7 -175.1,-13.3 -248,0.6 -124.5,23.8 -245.5,86.6 -366.5,126.9 -107.4,35.9 -247.9,53.8 -342.7,101.4 -61.9,31 -65.7,85.2 -94.1,136.1 -60.1,108.1 -177.2,181.8 -207.2,304.7 -17.3,71.3 -3.3,73.3 -53.2,112.1 -23.3,18.1 -61,35.4 -88,52.1 -85.5,52.9 -184.2,97.3 -272.7,147.4 -132.8,75.2 -326.5,43.8 -492.3,45 -281.1,1.8 -542.6,-66.4 -816.6,-92.2 -123.9,-11.7 -200.6,-32.7 -316.5,-68.3 -69,-21.3 -153.3,-42 -227.7,-45.5 -169.1,-8 -345.4,-0.4 -514.3,1 -103.7,0.8 -199,-21.2 -301.6,-23.8 -51.5,-1.3 -107.8,6.7 -158.8,1.7 -91.3,-9 -161.3,-24.3 -255.4,-23.9 -67.5,0.4 -135,-0.1 -202.5,-0.1 -148.3,0 -308.2,12.4 -454.7,1.3 -106.7,-8.2 -198.9,-24.3 -309.2,-23.9 -103.2,0.3 -203,5.9 -302.5,-16.8 -168.2,-38.3 -262.6,-118.7 -402.7,-188.8 -169.3,-84.7 -430.9,-83 -629.1,-107.7 -154.5,-19.1 -308.8,-35.9 -463.3,-56.9 -122.1,-16.5 -251.4,-60.6 -372.5,-64.4 -295.3,-9 -579.9,-42.8 -873.9,-63.7 -119.4,-8.4 -211.9,-31.5 -324.2,-53.9 -45,-8.9 -85.2,-34 -127.1,-41.1 -38.8,-6.6 -85.2,6.8 -124.7,2.3 -28.8,-3.2 -51.1,-14.7 -78.7,-18.8 -104.1,-15.7 -213.3,-8 -319.6,-22.3 -268.7,-36.2 -532.3,-70 -809.5,-52.3 -85.8,5.5 -157.6,25.5 -246.4,24.2 -64.2,-0.9 -104.5,3.7 -164.1,19.5 -105.6,28 -205.8,69.5 -303.9,111.3 -82.9,35.2 -157.9,113 -242.8,139.2 -52.5,16.1 -124.5,-11.5 -174.6,-19.8 -136.3,-22.7 -284.1,-47.9 -421.5,-64.2 -100.3,-12.1 -161,0.5 -244.6,17.6 -128.6,26.2 -247,55.1 -365.6,104.3 -90.6,37.6 -172.3,82 -251.1,131.1 -19.3,11.9 -136.7,106.8 -177.7,107.1 -45.4,0.2 -95.3,-33.2 -136.2,-55.8 -75,-41.5 -169.8,-86.4 -238.1,-131.3 -46.8,-30.9 -81.2,-74.4 -128.6,-108.3 -58.9,-41.9 -101.7,-83.4 -163.4,-119.8 -48.1,-28.5 -73.2,-61.7 -127.9,-85.7 -240.1,-105.2 -474.1,-226.8 -719.2,-329.4 -88,-36.9 -145.2,-42.9 -241.5,-22.2 -146.5,31.4 -300.2,54.8 -442.4,95 -149.1,42.3 -301.8,86 -424.5,161.1 -37.3,22.8 -67.1,77.8 -127.9,75.7 -28.5,-1.1 -25.6,-21 -49.9,-23.7 -25.8,-3 -50.3,-2.1 -77,-1.9 -81.1,0.8 -164.1,-6.2 -244,5 -244.1,34.3 -480.2,21.7 -716.7,97.5 -46.6,14.8 -78.2,37.3 -114.4,57.5 -29.1,16.1 -61.5,29.1 -89.8,50.6 -94.5,72.2 -124.4,157.4 -258.9,193.1 -231.3,61.4 -452.3,156.9 -691.8,205.9 -124,25.4 -251.8,51.5 -377.6,71.5 -47.3,7.4 -96.1,20.5 -143.9,26 -61.2,7 -105.7,-0.3 -162.7,26.1 -47.5,22.1 -131.2,70.5 -157,108.8 -31.6,47 -19.4,113.4 -76.5,154.6 -51.7,37.5 -138.5,60.6 -196.8,95.2 -148.3,88.1 -301.9,164.1 -357.8,295.4 -77.9,-27.9 -165.1,-47.7 -238,-89.3 -69.7,-39.9 -134.6,-82.8 -210.4,-119.4 -80.4,-39 -174,-48.4 -236.5,-102.8 -44.7,-38.9 -67.9,-89.7 -111.6,-125.6 -45.5,-37.4 -139.7,-59.7 -196,-90.5 -31.4,-17.2 -69.8,-27.9 -100.2,-45.7 -28.4,-16.5 -41,-41.5 -69.8,-57.4 -63.2,-34.9 -154.3,-45.3 -228,-52.6 -170.7,-17 -339.1,-74.7 -508,-101.7 -63.5,-10.1 -128.9,-5.9 -190.1,-20.7 -40,-9.6 -77.2,-25 -116.8,-35 -88.7,-22.7 -156.2,-42.3 -251.7,-47.6 -102.5,-5.5 -218.1,-22.9 -318.3,-41.9 -97.6,-18.5 -156.2,-59.5 -238.5,-95.2 -81.8,-35.3 -165.1,-59.6 -225.4,-116.4 -40.3,-37.9 -53.6,-94.2 -138.4,-87.8 -65.3,5 -123.3,59 -160.9,91.7 -109.3,94.9 -184.3,202.4 -292.8,296.6 -48.5,42.1 -111.7,75.3 -155.4,119.4 -44.1,44.7 -81.3,90.1 -131.1,132.8 -85.5,73.3 -183.9,117.5 -297.7,163.4 -158.4,64.1 -307.4,141.1 -432.4,235.2 -99.9,75.2 -191.6,161.5 -311.1,221.1 -79.3,39.6 -165.2,42.1 -252.5,73.4 -95.4,34 -185.9,73.4 -282.3,106.9 -68.3,23.8 -115.9,54 -188.1,70.2 -48.1,10.7 -98.2,18.2 -145.4,30.2 -128.7,32.8 -236.8,56.5 -360.6,101.4 -70.5,25.6 -135.5,16.8 -192.2,59.5 -99.1,74.6 -174.3,154.5 -265.4,234.1 -56.8,49.5 -109.9,79.8 -159.4,136.2 -31.6,35.9 -57.6,52.6 -106.4,76.1 -59.9,28.9 -114.3,49 -184.9,65 -199,44.9 -429.2,49.5 -637.2,66.6 -123.1,10.2 -269.54,76.1 -389.14,107.2 -102.15,26.5 -205.95,63.4 -312.1,74.1 -130.27,13.2 -246.83,40.4 -371.69,63.6 -79.27,14.9 -150.78,18 -220.63,55.7 -40.62,21.9 -75.82,54.4 -112.11,79.8 -62.1,43.5 -122.67,78.6 -189.05,119.5 -81.35,50.1 -162.28,115.3 -227,175.9 -44.2,41.4 -72.21,75.1 -126.53,110.3 -23.57,15.2 -46.98,27.4 -66.66,45.6 -71.24,-42.1 -179.47,-66.3 -260.69,-104.3 -99.23,-46.4 -179.32,-105.3 -277.31,-154.1 -105.05,-52.4 -197.62,-121.2 -308.91,-165 -125.71,-49.2 -252.65,-90.5 -375.72,-136.1 -68.74,-25.5 -138.03,-42.7 -200.95,-73.4 -88.55,-43.2 -160.49,-97.8 -237.12,-150.5 -82.74,-56.9 -260.27,-91.6 -371.97,-118.1 -110.03,-26.2 -237.4,-44.3 -351.32,-62.8 -149.67,-24.4 -300.32,-33 -447.77,-49.4 -139.98,-15.5 -299.36,-74 -425.46,-115.6 -102.28,-33.8 -202.91,-78.9 -288.69,-134.9 -139.42,-91.2 -280.08,-184.7 -458.86,-235.7 -118.91,-33.8 -249.31,-4.1 -375.01,-15.1 -63.21,-5.5 -109.76,-24.3 -176.57,-23.6 -61.68,0.7 -135.95,8.9 -196.1,1.2 -71.37,-9.2 -125.56,-24.9 -200.67,-24 -95.91,1.2 -158,-7.7 -246.55,-29.1 -80.25,-19.4 -158.27,-54.2 -240.87,-63.7 -103.25,-11.9 -215.64,9.9 -320.28,2.9 -192.22,-13 -321.66,-78.6 -478.53,-149.8 -173.94,-79 -371.56,-105.1 -553.1,-169 -85.11,-29.9 -179.9,-65.8 -262.77,-97.8 -86.06,-33.3 -139.84,-45.1 -235.881,-67.8 -92.707,-21.9 -163.109,-68.9 -257.902,-86.6 -75.684,-14.3 -159.66,-21.4 -230.887,-45 -94.941,-31.3 -174.766,-93.2 -265.957,-131.5 -51.836,-21.8 -102.2774,-24.4 -161.3086,-32.3 -12.75,-1.8 -24.9492,-3.8 -36.7344,-6 z"
         id="path74" /></clipPath><linearGradient
       x1="0"
       y1="0"
       x2="1"
       y2="0"
       gradientUnits="userSpaceOnUse"
       gradientTransform="matrix(0,7190.79,7190.79,0,20000,7176.4)"
       spreadMethod="pad"
       id="linearGradient86"><stop
         style="stop-opacity:1;stop-color:#ceded8"
         offset="0"
         id="stop78" /><stop
         style="stop-opacity:1;stop-color:#ceded8"
         offset="0.448155"
         id="stop80" /><stop
         style="stop-opacity:1;stop-color:#86b2c0"
         offset="0.994413"
         id="stop82" /><stop
         style="stop-opacity:1;stop-color:#86b2c0"
         offset="1"
         id="stop84" /></linearGradient><clipPath
       clipPathUnits="userSpaceOnUse"
       id="clipPath96"><path
         d="M 40000,11332.7 V 0 H 0.0117188 v 10598.4 c 45.5937812,4.8 91.1913812,8.5 136.6442812,10.8 687.813,33.6 760.707,259.2 1392.674,525.4 397.75,167.6 863.54,430 1203.91,689.9 297.82,227.3 1106.34,427 1106.34,427 0,0 548.25,-576 796.88,-721.1 347.58,-202.8 705.83,-353.9 1033.03,-593.6 101.04,-73.8 259.16,-252.6 368.78,-307.5 297.41,-149 699.18,-8.8 1021.26,-117.9 382.91,-129.5 609.64,-426.1 928.95,-642.6 451.52,-306.1 977.32,-127.1 1431.33,-363.1 184.04,-95.7 205.94,-141.3 397.89,-103.6 125.84,24.9 317.5,186.4 437.8,234.9 310.3,125.5 651.9,222.6 977.6,296.2 531.3,120.2 975,106.5 1455.2,354.1 522.4,269.3 1120.4,318.4 1651.4,574.8 401,193.8 812,350.9 1217.5,534.4 227,102.9 776.9,232.4 776.9,232.4 0,0 226.2,-163.3 347,-231.5 270.9,-153.1 580.1,-157.1 866.3,-270.9 329,-130.8 553.7,-352.5 934.2,-289.1 447.7,74.5 466.2,470.3 813.4,724.2 288.8,211.3 1073.8,522 1073.8,522 0,0 815,-747.2 1153.5,-847.8 267.1,-79.5 549.2,18.6 774.1,-93 107.1,-53.2 134.6,-181.9 333.9,-206.4 296.1,-36.5 755.3,208.7 1030.1,332.4 140.4,63.2 278.4,161.3 410.5,250.1 126.5,-247 514,-302.1 755.7,-325.8 246.8,-23.9 384.6,25.1 585.5,240.4 293.8,-217.3 257.2,-265.6 586.5,-42.6 200,135.3 418,265.6 609.4,397.5 152.4,-255.3 529.7,-399.6 803.7,-423.8 254.7,-22.6 435.5,33 666.9,105.8 253.3,79.7 185.2,119.2 408.4,-7.3 255,-144.4 459,-501.4 699.6,-591.9 335.9,-126.5 678.2,156.6 999.2,134.6 164.3,-11.3 310.7,-133.6 457.6,-190.8 452.3,-176 926.5,-256 1401.1,-345.2 579.6,-108.8 1079.6,-318.5 1630.8,-497 635.4,-205.9 1352.2,-346 1955.3,13.3 286.8,170.7 513.2,380.9 809.5,539.3 164.5,88 339.1,253.5 537.8,247 177.9,-5.7 409.3,-196.6 590.3,-225.7 525.1,-84.7 1162.6,323.5 1648.2,514.9 177.8,70.2 357.6,65.2 524.4,137.3 94.3,40.7 179.1,86.4 259.2,133.8 z"
         id="path94" /></clipPath><linearGradient
       x1="0"
       y1="0"
       x2="1"
       y2="0"
       gradientUnits="userSpaceOnUse"
       gradientTransform="matrix(0,12326.3,12326.3,0,20000,-181.001)"
       spreadMethod="pad"
       id="linearGradient104"><stop
         style="stop-opacity:1;stop-color:#ceded8"
         offset="0"
         id="stop98" /><stop
         style="stop-opacity:1;stop-color:#5585a6"
         offset="0.994413"
         id="stop100" /><stop
         style="stop-opacity:1;stop-color:#5585a6"
         offset="1"
         id="stop102" /></linearGradient></defs><sodipodi:namedview
     id="namedview4"
     pagecolor="#ffffff"
     bordercolor="#666666"
     borderopacity="1.0"
     inkscape:pageshadow="2"
     inkscape:pageopacity="0.0"
     inkscape:pagecheckerboard="0" /><g
     id="g8"
     inkscape:groupmode="layer"
     inkscape:label="ink_ext_XXXXXX"
     transform="matrix(1.3333333,0,0,-1.3333333,0,3200)"><g
       id="g10"
       transform="scale(0.1)"><g
         id="g12"><g
           id="g14"
           clip-path="url(#clipPath18)"><path
             d="M 0,24000 H 40000 V 8065.9 H 0 V 24000"
             style="fill:url(#linearGradient26);fill-opacity:1;fill-rule:nonzero;stroke:none"
             id="path28" /></g></g><g
         id="g30"><g
           id="g32"
           clip-path="url(#clipPath36)"><path
             d="M 40000,15442.8 V 7065.4 H 0.0117188 v 10965.7 c 28.9687812,-8.6 57.7851812,-18.2 86.2030812,-29.8 113.0862,-45.7 240.5862,-76.6 344.8012,-121.6 207.605,-89.8 413.132,-192.7 610.064,-311 98.4,-59 125.01,-135.2 175.73,-228.3 67.08,-122.6 160.07,-145.7 256.39,-215.2 35.47,-25.6 38.8,-56.8 58.62,-89.9 34.23,-57.4 63.47,-85.8 120.44,-125.1 30.06,-20.7 70.95,-38.5 97.7,-63.3 49.47,-45.4 52.11,-102.2 138.03,-93.3 68.18,7 72.06,37.7 128.19,83.1 60.98,49.3 119.88,101.5 181.96,149.7 76.78,59.5 168.25,95.6 242.26,160.9 84.81,75 114.47,169.9 162.7,266.2 18.43,37 44.07,60.6 57.79,103.4 23.56,72.9 23.84,131.3 69.85,197.8 65.28,94.5 154.11,155.3 205.94,253.7 25.36,48 28.83,93 88.7,103.4 46.7,8.1 117.11,-25.5 162.7,-35.1 106.02,-22.4 266.23,-76.2 334.83,-164.3 59.87,-76.8 102.28,-140.3 185.7,-197.8 92.03,-63.4 199.99,-99.3 291.87,-162.6 52.81,-36.3 99.37,-91.7 165.2,-102.5 21.06,-3.5 43.79,5.4 64.99,3.2 49.48,-5.4 33.13,-11.8 69.99,-25 147.32,-53.1 275.1,-150 416.46,-218.3 79.55,-38.3 152.17,-75.4 229.5,-119 69.98,-39.6 117.94,-103 187.23,-140.9 71.37,-39.2 166.3,-23.2 251.26,-23.2 50.86,0 101.86,-0.6 152.86,-0.2 82.87,0.6 144.13,-20 222.02,-34.4 38.39,-7.1 88.56,1.1 127.78,1.6 75.94,0.8 112.53,-11.7 180.85,-29.6 48.51,-12.7 101.87,-27.9 151.9,-37.7 35.89,-7.2 80.65,7.4 116.55,3.6 59.31,-6.6 109.34,-32.9 169.9,-36.4 187.65,-11.2 385.42,-7.1 573.06,0.2 79.97,3 142.2,33 208.44,75.4 75.26,48.1 155.08,75.4 226.87,130.5 97.98,75.1 204,102.7 304.62,159.8 134.29,76.2 292.55,140.7 438.21,203.1 73.73,31.5 148.84,55.8 215.23,122.1 110.59,110.3 217.3,244.3 318.19,360.7 51.42,59.2 156.6,182.3 236.57,199.1 94.52,20 153.14,-39.8 218.97,-91.5 64.72,-50.7 137.07,-79.1 202.75,-126.9 57.1,-41.6 113.37,-48.6 158.41,-103.1 35.47,-42.8 43.51,-82.6 63.61,-132 37.14,-91.4 121.96,-186.3 192.5,-255 95.07,-92.6 174.5,-203.5 319.9,-212.9 92.3,-5.9 166.4,55 254.7,82.5 107.4,33.5 211.5,75.6 319,108.7 74,22.7 118.6,51.4 182,16 53.2,-29.7 90.1,-75.7 146.6,-101.5 62.5,-28.5 126,-24.2 188.2,-42.2 51.3,-14.8 97.2,-50.1 146.1,-71.8 47.9,-21.1 94.1,-27.2 137.3,-47.8 257,-123 536.2,-226.5 782.5,-371 117.1,-68.7 258.2,-115 382.5,-173.2 97.4,-45.8 255.1,-37.4 349.9,8.9 90.2,44.2 169.2,80.2 242.3,140.4 83.3,68.6 184.3,112.3 284.8,123.9 93,10.8 171.4,1.1 261.1,24.8 181.5,48 414.3,6.8 600.3,7.2 168.7,0.5 330.6,4.4 496.7,-24.7 58.2,-10.1 115.7,-34.7 172.6,-42.7 56.5,-7.8 68.4,-9.5 116,-27 57.8,-21.3 104.3,-44.3 166.4,-35.8 95.5,13 153.2,98.5 230.2,148.6 57.7,37.5 117.9,83.2 178.2,115 84.4,44.2 167.4,79.8 251.8,126.3 53.5,29.5 107.9,44.3 164.4,67.8 47.7,19.9 84.4,60.5 127.4,82 175.8,87.7 367.9,55.6 542.5,-44.3 170.2,-97.4 366.2,-52.1 548.8,-102.3 49.4,-13.6 94.6,-30.2 146.5,-33.6 41.7,-2.8 91.4,12.1 131.8,2.4 37.4,-8.9 71.5,-27 111.9,-37.8 54.6,-14.4 110.8,-39.7 162.7,-62.1 99.2,-42.6 187.2,-81.3 275.9,-139.9 69.2,-45.6 117.4,-106 182.7,-156 59.4,-45.4 137.7,-90.2 208,-99.3 42.1,-5.4 105.7,-6.1 146.7,-0.7 84.9,11.2 113.8,70.4 183.4,113.6 67.2,42 83.7,47.4 134.1,110.5 22.2,27.6 59.6,61 88.7,82.2 93.6,67.4 188.1,127.1 280.4,203.9 52.9,44.1 119.2,77 169.5,124.4 26.7,25 42.4,57.6 70.1,81.4 77.4,66.2 188.6,156.8 280.9,201.5 70.2,33.8 138.2,71.9 207.8,103.2 15.2,6.9 41.7,-8.4 58.9,3.7 15.2,10.7 23.5,47.5 38,62.1 44.7,44.4 131.8,99.4 184.6,130.4 92.3,53.8 145.6,171 274.2,132.9 36.5,-11 59.7,-44.1 97.7,-58.5 133.9,-50.5 294.8,-97.7 435.3,-125.4 44.4,-8.6 171,4.4 207.4,-19.7 8.8,-6 34.2,-58.3 36.7,-61.1 18.3,-19.8 50.1,-34 71.4,-47.3 90.5,-56.5 173.6,-107 256.1,-174.9 85.5,-70.5 192.5,-110.2 284.8,-171 135.1,-88.6 272.7,-193.8 398.5,-294.6 106.1,-84.8 125.9,-204.1 226.4,-289.3 122.9,-104.2 220.9,-171.8 384,-172.1 130.9,-0.1 221.2,29 330.2,89.6 172.4,95.5 369.2,159.5 556.7,213.9 42.9,12.6 86.5,40.4 129.6,50.3 24.4,5.8 55.9,0 77.5,9.3 28.4,12.1 45.7,43.3 76.4,57.3 47.9,22 108.5,23.4 158.1,45.9 68.7,31.2 117.6,76.3 173.8,123.3 76,63.6 151.4,134.1 230.9,192.9 68,50.4 159.6,82 219.6,144.4 46,47.8 85.5,93.6 134.9,140.4 48.9,46.6 64.1,98 131.3,116.6 60.2,16.7 129.6,5.4 190.2,37.9 56.8,30.6 114,88 139.1,147.7 -19.6,-76.4 62.8,-157.8 126.1,-196.1 48.3,-29.1 97.1,-20.2 148.1,-38.8 53.4,-19.4 113.7,-68 155.4,-107.6 38.7,-36.8 64.4,-76.8 110.6,-108.4 61.2,-41.7 130.5,-62.7 194.1,-97.6 56.4,-31 69.1,-48.6 107.1,-97 82.4,-105.2 202.5,-170.4 324.3,-218.4 57.2,-22.5 110.2,-60 162.7,-79.6 58.3,-21.8 137.5,-16.9 200.9,-40.3 49.5,-18.2 93.3,-48.7 143.1,-58.6 52.9,-10.6 125.2,1.3 179.8,1.3 88.1,0 189.8,-13.9 276.7,-1.3 49.3,7.2 103.8,25.3 153.7,38.1 179.6,45.7 363.1,128.4 537.5,192.2 306.2,111.8 623.8,237.3 886.5,435.1 240.7,181.1 462.6,393.8 718.4,552.7 197.3,122.6 349.4,315.9 548.9,435 107.6,64 163.7,150.8 255.9,229.3 79,67.1 158.5,129.8 239.7,193.6 62.7,49.2 121.8,102.9 190.3,143.5 31.7,18.8 108.9,79.3 143,80.9 47.6,2.1 78.6,-48.2 116,-82.1 61,-55.2 123.1,-86.8 193.1,-131 68.4,-43.4 106.6,-81.7 140.8,-152.5 65.7,-135.5 36.4,-274 80.8,-412.8 18,-56.7 39.9,-122.4 73.4,-166.8 48.9,-64.6 133.5,-138.2 199,-184.2 65,-45.5 162.6,-83.6 237.7,-106.5 40.9,-12.4 92.9,-0.7 128.6,-15.4 55,-22.5 89.6,-80.8 151.2,-97.8 81.8,-22.5 139,19.2 200.8,65.8 90.8,68.4 188.3,115.1 282.4,175.4 90.4,58.1 162.2,139.9 256.3,183.1 129.2,-129.2 290.8,-236.7 433.9,-350.3 81.8,-64.9 264.8,-136.6 293.2,-235.8 28.5,-99.5 35.4,-204.8 93.7,-295.5 50.8,-79.3 145.6,-143.1 219.8,-204.7 153,-127.1 311.2,-221 486.5,-313.5 190.4,-100.3 440.3,-54 570.6,-235.7 33.5,-46.7 75.8,-79.9 100.9,-133.1 20.1,-42.6 26.7,-87.4 45.7,-130.6 21.5,-48.7 61.4,-135.2 100.2,-169.1 44.5,-38.9 77.4,-40.2 146.4,-51.8 237.2,-39.7 475.5,-48 710.1,-109.1 59.2,-11.4 115.3,-30.7 168.5,-58.2 12.2,-9.1 22.3,-20 30.4,-32.9 50.8,-19 111.4,-19 166.1,-37.1 122.3,-40.3 252.8,-73.2 370.1,-127 54.4,-25.2 51.8,-39 115.3,-42.5 168.3,-9.6 342.3,80 498.7,127.8 129.8,39.5 240.6,61.9 372.3,71.1 60.4,4.3 136.5,49.8 196.4,37.2 46.4,-9.9 61.4,-47.8 94.4,-77.1 32.9,-29.5 73.2,-55.1 108.3,-82.1 103.4,-79.5 278.6,-77.1 409.3,-105.2 207.9,-44.8 412.8,-123.2 617.2,-166.9 16.4,1.7 32.8,2.7 49.1,2.8"
             style="fill:url(#linearGradient46);fill-opacity:1;fill-rule:nonzero;stroke:none"
             id="path48" /></g></g><g
         id="g50"><g
           id="g52"
           clip-path="url(#clipPath56)"><path
             d="M 40000,13017.9 V 7034.1 H 0.0117188 v 5936.2 c 84.2616812,7 172.2612812,-12.2 254.7222812,5 69.567,14.5 151.754,56.1 226.18,75.6 87.582,23.1 177.25,10.2 276.473,17.8 77.199,6 160.074,33.2 221.328,69.1 71.235,41.7 103.665,103.9 166.585,151.9 55.99,42.8 124.73,73.3 174.07,121.6 40.46,39.4 57.23,67.5 112.39,91.8 100.61,44.1 190.14,93.9 300.32,124.1 129.58,35.5 251.54,82.4 383.61,112.6 101.72,23.3 174.07,41 218.96,112.7 28.7,45.9 42.56,100.7 79.84,144.1 31.18,36.5 76.35,63.8 108.51,100.3 27.85,31.8 46.84,69 86.48,93.7 50.44,31.5 113.64,48.6 165.33,74.6 70.54,35.3 109.77,81.8 187.23,113.1 77.34,31.4 131.38,56.4 215.37,74 71.79,15 141.5,43 213.01,60.7 107.96,26.7 215.78,43.1 325.26,65.1 178.78,36.1 362.13,68.4 533.15,121 64.16,19.6 131.66,17.4 193.46,37.7 86.77,28.6 139.56,67.7 237.55,81.1 39.35,5.4 83.01,-2 120.43,4.1 39.22,6.4 66.66,21.7 108.24,27.3 79.96,10.9 171.01,-3.2 252.78,-2.1 103.25,1.1 177.39,25.5 273.29,45.3 205.81,42.9 394.15,88.1 584.15,167.2 116.13,48.4 233.52,116 326.24,189.1 79.41,62.6 154.39,91.7 258.6,124.3 78.44,24.4 144.55,56.9 228.81,71.1 107.55,18 221.74,24.2 325.95,53.1 94.11,26.2 185.85,69.7 276.35,102.3 140.53,50.7 251.96,130.6 383.89,189.5 84.12,37.4 163.81,68.6 243.64,111.6 86.89,46.9 183.21,108.6 275.79,145.9 87.3,35.2 193.74,56.2 284.51,86 66.39,21.6 124.32,51.4 192.09,68.5 164.09,41.6 338.71,43.4 504.04,79.1 214.26,46.2 394.01,161.2 537.3,289.5 164.66,147.4 343.96,301.7 568.46,385.2 103.8,38.5 132.1,2.6 222.2,-46.4 127.8,-69.6 256.4,-137.9 377.4,-214 145.9,-91.7 273,-185 428.9,-262.5 62.8,-31.3 136.4,-50.6 199.1,-81.3 41.3,-20.3 40.9,-35.3 71.1,-51.9 22.9,-12.6 47.4,-15 69.1,-26.3 51.5,-26.8 99.2,-69.7 147.7,-102.1 100.2,-66.6 201.4,-131.4 304.2,-195.3 80.5,-50 144,-102.6 187.8,-174.2 74.8,10.3 137.2,47.6 210.2,63.4 70,15.1 139.2,10.8 211.2,10.4 102.6,-0.4 206.1,3.5 308.7,0.4 173.3,-5.1 321.6,-140.8 487.6,-189 91.5,-26.5 156.6,-1.9 246.3,11.3 103,15.2 251.3,14.9 356.5,2.7 77.8,-8.9 152.1,-56.4 224.6,-86.9 149.3,-63 314.7,-134 445,-216.6 146.1,-92.6 330,-178.3 436,-298.1 51.3,-57.9 148.7,-112.9 226.9,-151.5 47.1,-23.2 100,-28 148.4,-48.2 51,-21.2 92,-49.6 145.1,-69.5 64.5,-24.2 151.9,-57.8 190,-106.1 15.8,-20.1 25,-63.2 37.2,-86.2 39.3,-73.9 62.9,-142.9 115.4,-213.4 25.4,-34 47.8,-68.5 72.3,-102.7 7.4,-10.5 37.2,-55.4 43.3,-59.5 25.3,-17.1 52.9,-24.5 94.5,-10.6 18.3,6.1 36.2,24.7 52.2,33.6 35.5,19.6 76.3,27.2 112.7,43.8 76,34.8 98.4,78.2 193.8,70.1 81.5,-6.8 120.1,-59.5 178.5,-101.3 44,-31.6 83.4,-71.6 130.1,-100.3 35.5,-21.8 36.2,-21.7 80.8,-25.5 21.9,-1.9 46,5.9 67.6,1.9 16.8,-3 26.8,-18.7 38.3,-20.8 83.5,-15.7 175.7,-47.5 260,-56.9 53.5,-6 88.7,0.7 139.9,-10.9 43.1,-9.8 72.9,-25.2 111.5,-38 163.5,-54.3 292,-151 473.5,-188 97.3,-19.8 151.8,-8.7 247.5,12.6 100.2,22.2 205.4,26.7 305.6,49.6 85.1,19.5 237.8,32.1 305.9,75.1 150.5,95.2 252.8,242.3 393.8,341.9 64.8,45.7 125.7,98.8 212,123.3 76.2,21.7 162.5,23.6 243.6,42.7 103.7,24.4 182.5,71.6 261.2,131.4 110.2,83.6 231.6,163.4 359.5,233.7 128.4,70.5 269.4,114.4 419.5,155.1 164.3,44.6 343.2,56.2 505.6,101.5 98.4,27.4 207.2,88.6 293.7,133.7 32.4,17 76.9,24.3 105.4,44.7 35.4,25.3 71.5,65 105.1,93.9 42.8,36.9 72.2,80.6 116.4,116.8 54.4,44.5 103,75.3 138,129.9 35.9,55.9 77.4,102.5 119.6,155.4 20,24.9 72.5,114.7 99.3,124.8 42.6,16.2 198.1,-58.6 235.8,-81 23.6,-13.9 38.8,-37.3 62.7,-50.8 23.8,-13.2 52.8,-19.6 71.2,-32.8 11.2,-8 30.9,-47.2 42,-59.1 33.8,-36.7 77.6,-72.2 121.8,-101.5 214.4,-141.9 477.4,-181.6 750.1,-213.2 69.9,-8.1 156.7,-0.5 222,-17.1 43.8,-11.2 90.9,-32.8 138,-44.6 114.1,-28.1 256.8,-42.3 357.4,-94.6 25.8,-13.4 39.9,-29.9 60.9,-45.8 51.5,-38.9 105.2,-59.4 165.6,-91.2 146.7,-77.1 296.4,-148.5 448,-220.6 110.3,-52.4 193.9,-109.7 267.4,-192.7 64.1,-72.3 104.7,-150.9 162.8,-222.4 43.8,-53.8 83.3,-103.6 147.3,-145.7 91.1,-59.9 186.1,-41.4 302,-21.8 127.5,21.7 245,86.7 365.6,126.9 31.6,10.6 51.3,18.6 80,30.7 35.2,14.9 48.9,32.9 98.4,26.2 65,-8.7 98.1,-56.3 143.9,-88.5 80.4,-56.4 179.5,-101.4 261.1,-163.1 83.1,-62.8 187.1,-125.1 295.4,-157.7 79.4,-23.9 152,-42.6 224.3,-73.9 226.4,-98.4 465.7,-198 700,-269.3 233.4,-70.8 480.5,-82.1 732.6,-75.7 100.8,2.6 190.7,26.2 292.4,25.6 216.7,-1.2 439.8,14 654.9,-2.1 62.6,-4.7 161.1,-7.3 220.9,-28.6 36.2,-12.8 76.1,-41.7 117.4,-56 100.7,-34.9 204.1,-59.4 308.1,-87.4 144.5,-38.8 272.6,-99.8 411.3,-147.6 142.4,-49.2 299.5,-58.9 452.5,-73.4 221.3,-21 457.6,-6.2 679.9,-5.7 156.7,0.5 328.7,16.6 481.2,-18.1 40.6,-9.2 96.7,-37.3 137.6,-30.8 23.9,3.8 92.5,41.1 112.6,47.8 109.7,36.8 242.7,114.6 350.1,126 48.4,5.3 118.1,-17.2 165.5,-24.1 108.8,-16 215.8,-24.7 325.8,-32.4 192.6,-13.5 385.1,-27.9 577.6,-42.3 143.8,-10.7 272.4,-47.7 412.2,-71.2 78.6,-13.1 108.1,-22.9 169.1,-53.9 203.6,-103.1 441.1,-132.6 669.9,-182.4 55.2,-11.9 94.1,-48.8 150.8,-44.2 77.2,6.3 180,69 256.7,89 148.1,38.8 305,48.6 455.1,83.1 94.8,21.9 186.2,48.8 281,73.6 184.2,48.3 387.4,34.6 577,61.3 113.9,16 169.6,80.5 274.2,98.6 135.7,23.6 247.6,51.5 388.6,47.1 132.9,-4.2 261.4,-26.2 391.4,-45.7 399.8,-59.9 830.6,-91 1180.2,-257.3 150.9,-71.8 357.2,-77.1 548,-76.3"
             style="fill:url(#linearGradient66);fill-opacity:1;fill-rule:nonzero;stroke:none"
             id="path68" /></g></g><g
         id="g70"><g
           id="g72"
           clip-path="url(#clipPath76)"><path
             d="m 0,12425.4 v -6479 h 40000 v 5711 c -36.3,-4.5 -69.7,-9.3 -97,-13 -123.6,-17.3 -241.9,-38.5 -365.9,-56.6 -154.8,-22.5 -307,-17.1 -465.1,-17.2 -255.1,-0.1 -512.2,13.3 -763.9,-21.6 -173.4,-24.1 -331.2,-49.3 -509.2,-47.8 -76.6,0.7 -175.1,-13.3 -248,0.6 -124.5,23.8 -245.5,86.6 -366.5,126.9 -107.4,35.9 -247.9,53.8 -342.7,101.4 -61.9,31 -65.7,85.2 -94.1,136.1 -60.1,108.1 -177.2,181.8 -207.2,304.7 -17.3,71.3 -3.3,73.3 -53.2,112.1 -23.3,18.1 -61,35.4 -88,52.1 -85.5,52.9 -184.2,97.3 -272.7,147.4 -132.8,75.2 -326.5,43.8 -492.3,45 -281.1,1.8 -542.6,-66.4 -816.6,-92.2 -123.9,-11.7 -200.6,-32.7 -316.5,-68.3 -69,-21.3 -153.3,-42 -227.7,-45.5 -169.1,-8 -345.4,-0.4 -514.3,1 -103.7,0.8 -199,-21.2 -301.6,-23.8 -51.5,-1.3 -107.8,6.7 -158.8,1.7 -91.3,-9 -161.3,-24.3 -255.4,-23.9 -67.5,0.4 -135,-0.1 -202.5,-0.1 -148.3,0 -308.2,12.4 -454.7,1.3 -106.7,-8.2 -198.9,-24.3 -309.2,-23.9 -103.2,0.3 -203,5.9 -302.5,-16.8 -168.2,-38.3 -262.6,-118.7 -402.7,-188.8 -169.3,-84.7 -430.9,-83 -629.1,-107.7 -154.5,-19.1 -308.8,-35.9 -463.3,-56.9 -122.1,-16.5 -251.4,-60.6 -372.5,-64.4 -295.3,-9 -579.9,-42.8 -873.9,-63.7 -119.4,-8.4 -211.9,-31.5 -324.2,-53.9 -45,-8.9 -85.2,-34 -127.1,-41.1 -38.8,-6.6 -85.2,6.8 -124.7,2.3 -28.8,-3.2 -51.1,-14.7 -78.7,-18.8 -104.1,-15.7 -213.3,-8 -319.6,-22.3 -268.7,-36.2 -532.3,-70 -809.5,-52.3 -85.8,5.5 -157.6,25.5 -246.4,24.2 -64.2,-0.9 -104.5,3.7 -164.1,19.5 -105.6,28 -205.8,69.5 -303.9,111.3 -82.9,35.2 -157.9,113 -242.8,139.2 -52.5,16.1 -124.5,-11.5 -174.6,-19.8 -136.3,-22.7 -284.1,-47.9 -421.5,-64.2 -100.3,-12.1 -161,0.5 -244.6,17.6 -128.6,26.2 -247,55.1 -365.6,104.3 -90.6,37.6 -172.3,82 -251.1,131.1 -19.3,11.9 -136.7,106.8 -177.7,107.1 -45.4,0.2 -95.3,-33.2 -136.2,-55.8 -75,-41.5 -169.8,-86.4 -238.1,-131.3 -46.8,-30.9 -81.2,-74.4 -128.6,-108.3 -58.9,-41.9 -101.7,-83.4 -163.4,-119.8 -48.1,-28.5 -73.2,-61.7 -127.9,-85.7 -240.1,-105.2 -474.1,-226.8 -719.2,-329.4 -88,-36.9 -145.2,-42.9 -241.5,-22.2 -146.5,31.4 -300.2,54.8 -442.4,95 -149.1,42.3 -301.8,86 -424.5,161.1 -37.3,22.8 -67.1,77.8 -127.9,75.7 -28.5,-1.1 -25.6,-21 -49.9,-23.7 -25.8,-3 -50.3,-2.1 -77,-1.9 -81.1,0.8 -164.1,-6.2 -244,5 -244.1,34.3 -480.2,21.7 -716.7,97.5 -46.6,14.8 -78.2,37.3 -114.4,57.5 -29.1,16.1 -61.5,29.1 -89.8,50.6 -94.5,72.2 -124.4,157.4 -258.9,193.1 -231.3,61.4 -452.3,156.9 -691.8,205.9 -124,25.4 -251.8,51.5 -377.6,71.5 -47.3,7.4 -96.1,20.5 -143.9,26 -61.2,7 -105.7,-0.3 -162.7,26.1 -47.5,22.1 -131.2,70.5 -157,108.8 -31.6,47 -19.4,113.4 -76.5,154.6 -51.7,37.5 -138.5,60.6 -196.8,95.2 -148.3,88.1 -301.9,164.1 -357.8,295.4 -77.9,-27.9 -165.1,-47.7 -238,-89.3 -69.7,-39.9 -134.6,-82.8 -210.4,-119.4 -80.4,-39 -174,-48.4 -236.5,-102.8 -44.7,-38.9 -67.9,-89.7 -111.6,-125.6 -45.5,-37.4 -139.7,-59.7 -196,-90.5 -31.4,-17.2 -69.8,-27.9 -100.2,-45.7 -28.4,-16.5 -41,-41.5 -69.8,-57.4 -63.2,-34.9 -154.3,-45.3 -228,-52.6 -170.7,-17 -339.1,-74.7 -508,-101.7 -63.5,-10.1 -128.9,-5.9 -190.1,-20.7 -40,-9.6 -77.2,-25 -116.8,-35 -88.7,-22.7 -156.2,-42.3 -251.7,-47.6 -102.5,-5.5 -218.1,-22.9 -318.3,-41.9 -97.6,-18.5 -156.2,-59.5 -238.5,-95.2 -81.8,-35.3 -165.1,-59.6 -225.4,-116.4 -40.3,-37.9 -53.6,-94.2 -138.4,-87.8 -65.3,5 -123.3,59 -160.9,91.7 -109.3,94.9 -184.3,202.4 -292.8,296.6 -48.5,42.1 -111.7,75.3 -155.4,119.4 -44.1,44.7 -81.3,90.1 -131.1,132.8 -85.5,73.3 -183.9,117.5 -297.7,163.4 -158.4,64.1 -307.4,141.1 -432.4,235.2 -99.9,75.2 -191.6,161.5 -311.1,221.1 -79.3,39.6 -165.2,42.1 -252.5,73.4 -95.4,34 -185.9,73.4 -282.3,106.9 -68.3,23.8 -115.9,54 -188.1,70.2 -48.1,10.7 -98.2,18.2 -145.4,30.2 -128.7,32.8 -236.8,56.5 -360.6,101.4 -70.5,25.6 -135.5,16.8 -192.2,59.5 -99.1,74.6 -174.3,154.5 -265.4,234.1 -56.8,49.5 -109.9,79.8 -159.4,136.2 -31.6,35.9 -57.6,52.6 -106.4,76.1 -59.9,28.9 -114.3,49 -184.9,65 -199,44.9 -429.2,49.5 -637.2,66.6 -123.1,10.2 -269.54,76.1 -389.14,107.2 -102.15,26.5 -205.95,63.4 -312.1,74.1 -130.27,13.2 -246.83,40.4 -371.69,63.6 -79.27,14.9 -150.78,18 -220.63,55.7 -40.62,21.9 -75.82,54.4 -112.11,79.8 -62.1,43.5 -122.67,78.6 -189.05,119.5 -81.35,50.1 -162.28,115.3 -227,175.9 -44.2,41.4 -72.21,75.1 -126.53,110.3 -23.57,15.2 -46.98,27.4 -66.66,45.6 -71.24,-42.1 -179.47,-66.3 -260.69,-104.3 -99.23,-46.4 -179.32,-105.3 -277.31,-154.1 -105.05,-52.4 -197.62,-121.2 -308.91,-165 -125.71,-49.2 -252.65,-90.5 -375.72,-136.1 -68.74,-25.5 -138.03,-42.7 -200.95,-73.4 -88.55,-43.2 -160.49,-97.8 -237.12,-150.5 -82.74,-56.9 -260.27,-91.6 -371.97,-118.1 -110.03,-26.2 -237.4,-44.3 -351.32,-62.8 -149.67,-24.4 -300.32,-33 -447.77,-49.4 -139.98,-15.5 -299.36,-74 -425.46,-115.6 -102.28,-33.8 -202.91,-78.9 -288.69,-134.9 -139.42,-91.2 -280.08,-184.7 -458.86,-235.7 -118.91,-33.8 -249.31,-4.1 -375.01,-15.1 -63.21,-5.5 -109.76,-24.3 -176.57,-23.6 -61.68,0.7 -135.95,8.9 -196.1,1.2 -71.37,-9.2 -125.56,-24.9 -200.67,-24 -95.91,1.2 -158,-7.7 -246.55,-29.1 -80.25,-19.4 -158.27,-54.2 -240.87,-63.7 -103.25,-11.9 -215.64,9.9 -320.28,2.9 -192.22,-13 -321.66,-78.6 -478.53,-149.8 -173.94,-79 -371.56,-105.1 -553.1,-169 -85.11,-29.9 -179.9,-65.8 -262.77,-97.8 -86.06,-33.3 -139.84,-45.1 -235.881,-67.8 -92.707,-21.9 -163.109,-68.9 -257.902,-86.6 -75.684,-14.3 -159.66,-21.4 -230.887,-45 -94.941,-31.3 -174.766,-93.2 -265.957,-131.5 -51.836,-21.8 -102.2774,-24.4 -161.3086,-32.3 -12.75,-1.8 -24.9492,-3.8 -36.7344,-6"
             style="fill:url(#linearGradient86);fill-opacity:1;fill-rule:nonzero;stroke:none"
             id="path88" /></g></g><g
         id="g90"><g
           id="g92"
           clip-path="url(#clipPath96)"><path
             d="M 40000,11332.7 V 0 H 0.0117188 v 10598.4 c 45.5937812,4.8 91.1913812,8.5 136.6442812,10.8 687.813,33.6 760.707,259.2 1392.674,525.4 397.75,167.6 863.54,430 1203.91,689.9 297.82,227.3 1106.34,427 1106.34,427 0,0 548.25,-576 796.88,-721.1 347.58,-202.8 705.83,-353.9 1033.03,-593.6 101.04,-73.8 259.16,-252.6 368.78,-307.5 297.41,-149 699.18,-8.8 1021.26,-117.9 382.91,-129.5 609.64,-426.1 928.95,-642.6 451.52,-306.1 977.32,-127.1 1431.33,-363.1 184.04,-95.7 205.94,-141.3 397.89,-103.6 125.84,24.9 317.5,186.4 437.8,234.9 310.3,125.5 651.9,222.6 977.6,296.2 531.3,120.2 975,106.5 1455.2,354.1 522.4,269.3 1120.4,318.4 1651.4,574.8 401,193.8 812,350.9 1217.5,534.4 227,102.9 776.9,232.4 776.9,232.4 0,0 226.2,-163.3 347,-231.5 270.9,-153.1 580.1,-157.1 866.3,-270.9 329,-130.8 553.7,-352.5 934.2,-289.1 447.7,74.5 466.2,470.3 813.4,724.2 288.8,211.3 1073.8,522 1073.8,522 0,0 815,-747.2 1153.5,-847.8 267.1,-79.5 549.2,18.6 774.1,-93 107.1,-53.2 134.6,-181.9 333.9,-206.4 296.1,-36.5 755.3,208.7 1030.1,332.4 140.4,63.2 278.4,161.3 410.5,250.1 126.5,-247 514,-302.1 755.7,-325.8 246.8,-23.9 384.6,25.1 585.5,240.4 293.8,-217.3 257.2,-265.6 586.5,-42.6 200,135.3 418,265.6 609.4,397.5 152.4,-255.3 529.7,-399.6 803.7,-423.8 254.7,-22.6 435.5,33 666.9,105.8 253.3,79.7 185.2,119.2 408.4,-7.3 255,-144.4 459,-501.4 699.6,-591.9 335.9,-126.5 678.2,156.6 999.2,134.6 164.3,-11.3 310.7,-133.6 457.6,-190.8 452.3,-176 926.5,-256 1401.1,-345.2 579.6,-108.8 1079.6,-318.5 1630.8,-497 635.4,-205.9 1352.2,-346 1955.3,13.3 286.8,170.7 513.2,380.9 809.5,539.3 164.5,88 339.1,253.5 537.8,247 177.9,-5.7 409.3,-196.6 590.3,-225.7 525.1,-84.7 1162.6,323.5 1648.2,514.9 177.8,70.2 357.6,65.2 524.4,137.3 94.3,40.7 179.1,86.4 259.2,133.8"
             style="fill:url(#linearGradient104);fill-opacity:1;fill-rule:nonzero;stroke:none"
             id="path106" /></g></g></g></g></svg>
